<svg width="42" height="45" viewBox="0 0 42 45" fill="none" xmlns="http://www.w3.org/2000/svg">
<g filter="url(#filter0_d_207_9021)">
<path d="M13.7496 34.8501C13.6996 34.8501 13.6329 34.8834 13.5829 34.8834C10.3496 33.2834 7.71628 30.6334 6.09961 27.4001C6.09961 27.3501 6.13294 27.2834 6.13294 27.2334C8.16628 27.8334 10.2663 28.2834 12.3496 28.6334C12.7163 30.7334 13.1496 32.8167 13.7496 34.8501Z" fill="#ED5A30"/>
<path d="M35.9004 27.4167C34.2504 30.7334 31.5004 33.4167 28.1504 35.0334C28.7837 32.9167 29.3171 30.7834 29.6671 28.6334C31.7671 28.2834 33.8337 27.8334 35.8671 27.2334C35.8504 27.3001 35.9004 27.3667 35.9004 27.4167Z" fill="#ED5A30"/>
<path d="M36.0337 12.8501C33.9337 12.2168 31.8171 11.7001 29.6671 11.3335C29.3171 9.18346 28.8004 7.05013 28.1504 4.9668C31.6004 6.6168 34.3837 9.40013 36.0337 12.8501Z" fill="#ED5A30"/>
<path d="M13.7501 5.14961C13.1501 7.18294 12.7168 9.24961 12.3668 11.3496C10.2168 11.6829 8.08346 12.2163 5.9668 12.8496C7.58346 9.49961 10.2668 6.74961 13.5835 5.09961C13.6335 5.09961 13.7001 5.14961 13.7501 5.14961Z" fill="#ED5A30"/>
<path d="M26.8169 10.983C22.9503 10.5497 19.0503 10.5497 15.1836 10.983C15.6003 8.69967 16.1336 6.41634 16.8836 4.21634C16.9169 4.08301 16.9003 3.98301 16.9169 3.84967C18.2336 3.53301 19.5836 3.33301 21.0003 3.33301C22.4003 3.33301 23.7669 3.53301 25.0669 3.84967C25.0836 3.98301 25.0836 4.08301 25.1169 4.21634C25.8669 6.43301 26.4003 8.69967 26.8169 10.983Z" fill="#ED5A30"/>
<path d="M11.983 25.8169C9.68301 25.4003 7.41634 24.8669 5.21634 24.1169C5.08301 24.0836 4.98301 24.1003 4.84967 24.0836C4.53301 22.7669 4.33301 21.4169 4.33301 20.0003C4.33301 18.6003 4.53301 17.2336 4.84967 15.9336C4.98301 15.9169 5.08301 15.9169 5.21634 15.8836C7.43301 15.1503 9.68301 14.6003 11.983 14.1836C11.5663 18.0503 11.5663 21.9503 11.983 25.8169Z" fill="#ED5A30"/>
<path d="M37.6666 20.0003C37.6666 21.4169 37.4666 22.7669 37.1499 24.0836C37.0166 24.1003 36.9166 24.0836 36.7833 24.1169C34.5666 24.8503 32.2999 25.4003 30.0166 25.8169C30.4499 21.9503 30.4499 18.0503 30.0166 14.1836C32.2999 14.6003 34.5833 15.1336 36.7833 15.8836C36.9166 15.9169 37.0166 15.9336 37.1499 15.9336C37.4666 17.2503 37.6666 18.6003 37.6666 20.0003Z" fill="#ED5A30"/>
<path d="M26.8169 29.0166C26.4003 31.3166 25.8669 33.5833 25.1169 35.7833C25.0836 35.9166 25.0836 36.0166 25.0669 36.1499C23.7669 36.4666 22.4003 36.6666 21.0003 36.6666C19.5836 36.6666 18.2336 36.4666 16.9169 36.1499C16.9003 36.0166 16.9169 35.9166 16.8836 35.7833C16.1503 33.5666 15.6003 31.3166 15.1836 29.0166C17.1169 29.2333 19.0503 29.3833 21.0003 29.3833C22.9503 29.3833 24.9003 29.2333 26.8169 29.0166Z" fill="#ED5A30"/>
<path d="M27.2719 26.2719C23.1034 26.7978 18.8959 26.7978 14.7275 26.2719C14.2015 22.1034 14.2015 17.8959 14.7275 13.7275C18.8959 13.2015 23.1034 13.2015 27.2719 13.7275C27.7978 17.8959 27.7978 22.1034 27.2719 26.2719Z" fill="#ED5A30"/>
</g>
<defs>
<filter id="filter0_d_207_9021" x="-3" y="0" width="48" height="48" filterUnits="userSpaceOnUse" color-interpolation-filters="sRGB">
<feFlood flood-opacity="0" result="BackgroundImageFix"/>
<feColorMatrix in="SourceAlpha" type="matrix" values="0 0 0 0 0 0 0 0 0 0 0 0 0 0 0 0 0 0 127 0" result="hardAlpha"/>
<feOffset dy="4"/>
<feGaussianBlur stdDeviation="2"/>
<feComposite in2="hardAlpha" operator="out"/>
<feColorMatrix type="matrix" values="0 0 0 0 0 0 0 0 0 0 0 0 0 0 0 0 0 0 0.25 0"/>
<feBlend mode="normal" in2="BackgroundImageFix" result="effect1_dropShadow_207_9021"/>
<feBlend mode="normal" in="SourceGraphic" in2="effect1_dropShadow_207_9021" result="shape"/>
</filter>
</defs>
</svg>
