<svg width="42" height="45" viewBox="0 0 42 45" fill="none" xmlns="http://www.w3.org/2000/svg">
<g filter="url(#filter0_d_207_9019)">
<path d="M27.983 3.33301H14.0163C7.94967 3.33301 4.33301 6.94967 4.33301 13.0163V26.9663C4.33301 33.0497 7.94967 36.6663 14.0163 36.6663H27.9663C34.033 36.6663 37.6497 33.0497 37.6497 26.983V13.0163C37.6663 6.94967 34.0497 3.33301 27.983 3.33301ZM28.3497 16.383C27.333 19.283 24.5997 21.233 21.533 21.233C21.5163 21.233 21.5163 21.233 21.4997 21.233L18.0663 21.2163C18.0663 21.2163 18.0663 21.2163 18.0497 21.2163C16.783 21.2163 15.683 22.0663 15.3497 23.283C16.833 23.7497 17.9163 25.133 17.9163 26.7663C17.9163 28.783 16.2663 30.433 14.2497 30.433C12.233 30.433 10.583 28.783 10.583 26.7663C10.583 25.283 11.483 23.9997 12.7497 23.433V16.1663C11.483 15.6663 10.583 14.433 10.583 12.9997C10.583 11.1163 12.1163 9.58301 13.9997 9.58301C15.883 9.58301 17.4163 11.1163 17.4163 12.9997C17.4163 14.4497 16.5163 15.6663 15.2497 16.1663V19.533C16.0663 19.0163 17.033 18.7163 18.0497 18.7163H18.0663L21.4997 18.733C23.4663 18.7997 25.2163 17.533 25.9163 15.6997C25.0997 15.0663 24.5663 14.0997 24.5663 12.9997C24.5663 11.1163 26.0997 9.58301 27.983 9.58301C29.8663 9.58301 31.3997 11.1163 31.3997 12.9997C31.4163 14.7663 30.0663 16.1997 28.3497 16.383Z" fill="#ED5A30"/>
</g>
<defs>
<filter id="filter0_d_207_9019" x="-3" y="0" width="48" height="48" filterUnits="userSpaceOnUse" color-interpolation-filters="sRGB">
<feFlood flood-opacity="0" result="BackgroundImageFix"/>
<feColorMatrix in="SourceAlpha" type="matrix" values="0 0 0 0 0 0 0 0 0 0 0 0 0 0 0 0 0 0 127 0" result="hardAlpha"/>
<feOffset dy="4"/>
<feGaussianBlur stdDeviation="2"/>
<feComposite in2="hardAlpha" operator="out"/>
<feColorMatrix type="matrix" values="0 0 0 0 0 0 0 0 0 0 0 0 0 0 0 0 0 0 0.25 0"/>
<feBlend mode="normal" in2="BackgroundImageFix" result="effect1_dropShadow_207_9019"/>
<feBlend mode="normal" in="SourceGraphic" in2="effect1_dropShadow_207_9019" result="shape"/>
</filter>
</defs>
</svg>
