<svg width="42" height="46" viewBox="0 0 42 46" fill="none" xmlns="http://www.w3.org/2000/svg">
<g filter="url(#filter0_d_207_9020)">
<path d="M30.2167 12.9497C30.1001 12.933 29.9834 12.933 29.8667 12.9497C27.2834 12.8663 25.2334 10.7497 25.2334 8.14967C25.2334 5.49967 27.3834 3.33301 30.0501 3.33301C32.7001 3.33301 34.8667 5.48301 34.8667 8.14967C34.8501 10.7497 32.8001 12.8663 30.2167 12.9497Z" fill="#ED5A30"/>
<path d="M35.6503 24.4997C33.7837 25.7497 31.167 26.2164 28.7503 25.8997C29.3837 24.533 29.717 23.0164 29.7337 21.4164C29.7337 19.7497 29.367 18.1664 28.667 16.783C31.1337 16.4497 33.7503 16.9164 35.6337 18.1664C38.267 19.8997 38.267 22.7497 35.6503 24.4997Z" fill="#ED5A30"/>
<path d="M11.7329 12.9497C11.8496 12.933 11.9663 12.933 12.0829 12.9497C14.6663 12.8663 16.7163 10.7497 16.7163 8.14967C16.7163 5.48301 14.5663 3.33301 11.8996 3.33301C9.24961 3.33301 7.09961 5.48301 7.09961 8.14967C7.09961 10.7497 9.14961 12.8663 11.7329 12.9497Z" fill="#ED5A30"/>
<path d="M11.9169 21.4167C11.9169 23.0333 12.2669 24.5667 12.9002 25.95C10.5502 26.2 8.1002 25.7 6.3002 24.5167C3.66686 22.7667 3.66686 19.9167 6.3002 18.1667C8.08353 16.9667 10.6002 16.4833 12.9669 16.75C12.2835 18.15 11.9169 19.7333 11.9169 21.4167Z" fill="#ED5A30"/>
<path d="M21.2 26.45C21.0667 26.4333 20.9167 26.4333 20.7667 26.45C17.7 26.35 15.25 23.8333 15.25 20.7333C15.2667 17.5667 17.8167 15 21 15C24.1667 15 26.7333 17.5667 26.7333 20.7333C26.7167 23.8333 24.2833 26.35 21.2 26.45Z" fill="#ED5A30"/>
<path d="M15.783 29.9004C13.2663 31.5837 13.2663 34.3504 15.783 36.0171C18.6497 37.9337 23.3497 37.9337 26.2163 36.0171C28.733 34.3337 28.733 31.5671 26.2163 29.9004C23.3663 27.9837 18.6663 27.9837 15.783 29.9004Z" fill="#ED5A30"/>
</g>
<defs>
<filter id="filter0_d_207_9020" x="-3" y="0" width="48" height="48" filterUnits="userSpaceOnUse" color-interpolation-filters="sRGB">
<feFlood flood-opacity="0" result="BackgroundImageFix"/>
<feColorMatrix in="SourceAlpha" type="matrix" values="0 0 0 0 0 0 0 0 0 0 0 0 0 0 0 0 0 0 127 0" result="hardAlpha"/>
<feOffset dy="4"/>
<feGaussianBlur stdDeviation="2"/>
<feComposite in2="hardAlpha" operator="out"/>
<feColorMatrix type="matrix" values="0 0 0 0 0 0 0 0 0 0 0 0 0 0 0 0 0 0 0.25 0"/>
<feBlend mode="normal" in2="BackgroundImageFix" result="effect1_dropShadow_207_9020"/>
<feBlend mode="normal" in="SourceGraphic" in2="effect1_dropShadow_207_9020" result="shape"/>
</filter>
</defs>
</svg>
