<svg width="42" height="45" viewBox="0 0 42 45" fill="none" xmlns="http://www.w3.org/2000/svg">
<g filter="url(#filter0_d_207_9018)">
<path d="M36.4171 30.7829L33.6671 31.4329C33.0504 31.5829 32.5671 32.0495 32.4337 32.6662L31.8504 35.1162C31.5337 36.4495 29.8337 36.8662 28.9504 35.8162L23.9671 30.0829C23.5671 29.6162 23.7837 28.8829 24.3837 28.7329C27.3337 28.0162 29.9837 26.3662 31.9337 24.0162C32.2504 23.6329 32.8171 23.5829 33.1671 23.9329L36.8671 27.6329C38.1337 28.8995 37.6837 30.4829 36.4171 30.7829Z" fill="#ED5A30"/>
<path d="M5.50027 30.7829L8.25027 31.4329C8.86694 31.5829 9.35027 32.0495 9.4836 32.6662L10.0669 35.1162C10.3836 36.4495 12.0836 36.8662 12.9669 35.8162L17.9503 30.0829C18.3503 29.6162 18.1336 28.8829 17.5336 28.7329C14.5836 28.0162 11.9336 26.3662 9.9836 24.0162C9.66694 23.6329 9.10027 23.5829 8.75027 23.9329L5.05027 27.6329C3.7836 28.8995 4.2336 30.4829 5.50027 30.7829Z" fill="#ED5A30"/>
<path d="M20.9997 3.33301C14.5497 3.33301 9.33301 8.54967 9.33301 14.9997C9.33301 17.4163 10.0497 19.633 11.283 21.483C13.083 24.1497 15.933 26.033 19.2497 26.5163C19.8163 26.6163 20.3997 26.6663 20.9997 26.6663C21.5997 26.6663 22.183 26.6163 22.7497 26.5163C26.0663 26.033 28.9163 24.1497 30.7163 21.483C31.9497 19.633 32.6663 17.4163 32.6663 14.9997C32.6663 8.54967 27.4497 3.33301 20.9997 3.33301ZM26.0997 14.633L24.7163 16.0163C24.483 16.2497 24.3497 16.6997 24.433 17.033L24.833 18.7497C25.1497 20.0997 24.433 20.633 23.233 19.9163L21.5663 18.933C21.2663 18.7497 20.7663 18.7497 20.4663 18.933L18.7997 19.9163C17.5997 20.6163 16.883 20.0997 17.1997 18.7497L17.5997 17.033C17.6663 16.7163 17.5497 16.2497 17.3163 16.0163L15.8997 14.633C15.083 13.8163 15.3497 12.9997 16.483 12.8163L18.2663 12.5163C18.5663 12.4663 18.9163 12.1997 19.0497 11.933L20.033 9.96634C20.5663 8.89967 21.433 8.89967 21.9663 9.96634L22.9497 11.933C23.083 12.1997 23.433 12.4663 23.7497 12.5163L25.533 12.8163C26.6497 12.9997 26.9163 13.8163 26.0997 14.633Z" fill="#ED5A30"/>
</g>
<defs>
<filter id="filter0_d_207_9018" x="-3" y="0" width="48" height="48" filterUnits="userSpaceOnUse" color-interpolation-filters="sRGB">
<feFlood flood-opacity="0" result="BackgroundImageFix"/>
<feColorMatrix in="SourceAlpha" type="matrix" values="0 0 0 0 0 0 0 0 0 0 0 0 0 0 0 0 0 0 127 0" result="hardAlpha"/>
<feOffset dy="4"/>
<feGaussianBlur stdDeviation="2"/>
<feComposite in2="hardAlpha" operator="out"/>
<feColorMatrix type="matrix" values="0 0 0 0 0 0 0 0 0 0 0 0 0 0 0 0 0 0 0.25 0"/>
<feBlend mode="normal" in2="BackgroundImageFix" result="effect1_dropShadow_207_9018"/>
<feBlend mode="normal" in="SourceGraphic" in2="effect1_dropShadow_207_9018" result="shape"/>
</filter>
</defs>
</svg>
